<svg width="139" height="96" viewBox="0 0 139 96" fill="none" xmlns="http://www.w3.org/2000/svg">
<path d="M24.8135 81.9272V82.8993C24.8135 85.8481 24.0358 87.922 22.4804 89.1209C20.9412 90.3199 18.2193 90.9194 14.3146 90.9194H2.11438V73.9072H14.1687C18.0897 73.9072 20.844 74.5147 22.4318 75.7299C24.0196 76.9289 24.8135 78.9946 24.8135 81.9272ZM13.2695 76.9207H5.80846V87.9058H13.2695C15.4406 87.9058 17.0851 87.7276 18.2031 87.3711C19.321 87.0147 20.0744 86.4719 20.4633 85.7428C20.8683 85.0137 21.0708 83.9525 21.0708 82.5591V82.3161C21.0708 80.9227 20.8683 79.8614 20.4633 79.1323C20.0744 78.387 19.321 77.8362 18.2031 77.4797C17.0851 77.1071 15.4406 76.9207 13.2695 76.9207ZM43.7951 83.1181V90.9194H40.4169V88.3432H40.3197C39.5582 90.2227 37.3385 91.1624 33.6606 91.1624C29.4157 91.1624 27.2932 89.8014 27.2932 87.0795V86.885C27.3094 84.5357 28.8243 83.3125 31.8379 83.2153L40.4169 82.9236V82.8507C40.4169 81.7814 40.0605 81.0604 39.3476 80.6877C38.6509 80.2989 37.4843 80.1045 35.8479 80.1045C34.5032 80.1045 33.5067 80.2341 32.8586 80.4933C32.2106 80.7363 31.7407 81.1738 31.4491 81.8057H27.9251C28.2977 80.4123 29.0835 79.3997 30.2825 78.7678C31.4815 78.1197 33.3366 77.7957 35.8479 77.7957H36.5041C39.1127 77.7957 40.9759 78.2007 42.0938 79.0108C43.228 79.8209 43.7951 81.19 43.7951 83.1181ZM30.72 86.8364V86.9337C30.72 87.6465 31.0359 88.1569 31.6678 88.4648C32.3159 88.7726 33.3204 88.9265 34.6814 88.9265C36.3988 88.9265 37.7841 88.6187 38.8372 88.003C39.8904 87.3873 40.4169 86.5124 40.4169 85.3783V85.0137L33.2961 85.281C32.3888 85.3134 31.7326 85.4512 31.3275 85.6942C30.9225 85.9372 30.72 86.318 30.72 86.8364ZM62.3541 78.0387L52.9974 95.0509H49.4249L51.9038 90.8951L44.7586 78.0387H48.4284L53.6536 87.5412H53.8237L58.8302 78.0387H62.3541Z" fill="white"/>
<path d="M75.2808 77.1395V90.9194H71.5867V77.1395H62.8132V73.9072H84.0542V77.1395H75.2808ZM98.8569 83.1181V90.9194H95.4788V88.3432H95.3816C94.6201 90.2227 92.4004 91.1624 88.7225 91.1624C84.4775 91.1624 82.3551 89.8014 82.3551 87.0795V86.885C82.3713 84.5357 83.8862 83.3125 86.8998 83.2153L95.4788 82.9236V82.8507C95.4788 81.7814 95.1223 81.0604 94.4094 80.6877C93.7128 80.2989 92.5462 80.1045 90.9098 80.1045C89.565 80.1045 88.5686 80.2341 87.9205 80.4933C87.2724 80.7363 86.8026 81.1738 86.5109 81.8057H82.987C83.3596 80.4123 84.1454 79.3997 85.3444 78.7678C86.5433 78.1197 88.3985 77.7957 90.9098 77.7957H91.566C94.1745 77.7957 96.0378 78.2007 97.1557 79.0108C98.2898 79.8209 98.8569 81.19 98.8569 83.1181ZM85.7818 86.8364V86.9337C85.7818 87.6465 86.0978 88.1569 86.7296 88.4648C87.3777 88.7726 88.3823 88.9265 89.7432 88.9265C91.4607 88.9265 92.8459 88.6187 93.8991 88.003C94.9522 87.3873 95.4788 86.5124 95.4788 85.3783V85.0137L88.358 85.281C87.4506 85.3134 86.7945 85.4512 86.3894 85.6942C85.9843 85.9372 85.7818 86.318 85.7818 86.8364ZM110.071 91.1624H109.537C106.88 91.1624 104.911 90.8951 103.631 90.3604C102.351 89.8095 101.533 88.8617 101.176 87.5169H104.798C105.105 87.9868 105.648 88.3108 106.426 88.4891C107.22 88.6511 108.378 88.7321 109.901 88.7321C111.748 88.7321 113.02 88.6187 113.717 88.3918C114.413 88.1488 114.778 87.7195 114.81 87.1038V87.0309C114.81 86.561 114.584 86.2451 114.13 86.083C113.676 85.9048 112.809 85.7914 111.53 85.7428L106.863 85.5727C105 85.5079 103.663 85.2 102.853 84.6492C102.043 84.0983 101.638 83.2315 101.638 82.0487V81.7814C101.638 80.3232 102.278 79.2944 103.558 78.6949C104.838 78.0954 106.815 77.7957 109.488 77.7957H109.804C112.234 77.7957 114.049 78.0873 115.248 78.6706C116.447 79.2539 117.297 80.1774 117.8 81.4411H114.13C113.595 80.6148 112.04 80.2017 109.464 80.2017C107.795 80.2017 106.636 80.3151 105.988 80.5419C105.34 80.7525 105.016 81.1333 105.016 81.6842V81.7571C105.016 82.2269 105.235 82.5429 105.672 82.7049C106.159 82.8831 107.033 82.9965 108.297 83.0451L112.963 83.2153C114.859 83.2963 116.196 83.6041 116.973 84.1388C117.767 84.6735 118.164 85.5403 118.164 86.7392V86.9823C118.164 88.5539 117.516 89.6475 116.22 90.2632C114.924 90.8627 112.874 91.1624 110.071 91.1624ZM124.004 87.2739V90.9194H120.601V73.9072H124.004V83.9201H124.101L132.51 78.0387H137.249L129.423 83.5069L137.929 90.9194H133.142L126.847 85.3539H126.75L124.004 87.2739Z" fill="#FED36A"/>
<g opacity="0.3">
<path d="M95.8028 24.4818C98.6124 24.1746 100.641 21.648 100.334 18.8384C100.027 16.0289 97.4999 14.0003 94.6904 14.3075C91.8808 14.6147 89.8523 17.1413 90.1595 19.9509C90.4667 22.7604 92.9933 24.789 95.8028 24.4818Z" stroke="#EB996E" stroke-width="0.561983" stroke-linecap="round" stroke-linejoin="round"/>
<path d="M99.0881 21.4711C100.233 19.3514 99.4424 16.7051 97.3227 15.5604C95.2029 14.4157 92.5566 15.2061 91.4119 17.3258C90.2672 19.4455 91.0576 22.0919 93.1773 23.2366C95.2971 24.3813 97.9434 23.5908 99.0881 21.4711Z" stroke="#EB996E" stroke-width="0.561983" stroke-linecap="round" stroke-linejoin="round"/>
<path d="M97.1045 20.2704C97.1045 18.8036 95.024 18.7706 95.024 18.1582C95.024 17.8362 95.1932 17.7385 95.54 17.7385C95.8386 17.7385 96.0904 17.8679 96.378 18.1266L97.066 17.3354C96.7484 16.9796 96.3196 16.7419 95.8496 16.6611V15.8355H94.9428V16.6845C94.1653 16.8524 93.7044 17.4069 93.7044 18.2229C93.7044 19.6333 95.7863 19.7228 95.7863 20.3681C95.7863 20.6819 95.6239 20.8195 95.2207 20.8195C94.8822 20.8195 94.5437 20.6901 94.1075 20.3681L93.5117 21.3038C93.9208 21.6418 94.4196 21.8532 94.9469 21.912V22.7225H95.851V21.8556C96.689 21.6561 97.1045 21.0479 97.1045 20.2704Z" stroke="#EB996E" stroke-width="0.561983" stroke-linecap="round" stroke-linejoin="round"/>
</g>
<g opacity="0.3">
<path d="M98.2961 48.9165C99.585 48.9165 100.63 47.8716 100.63 46.5827C100.63 45.2938 99.585 44.249 98.2961 44.249C97.0072 44.249 95.9623 45.2938 95.9623 46.5827C95.9623 47.8716 97.0072 48.9165 98.2961 48.9165Z" stroke="#EB996E" stroke-width="0.561983" stroke-linecap="round" stroke-linejoin="round"/>
<path d="M99.7024 47.9899C100.479 47.2129 100.479 45.9531 99.7024 45.176C98.9254 44.399 97.6656 44.399 96.8885 45.176C96.1115 45.9531 96.1115 47.2129 96.8885 47.9899C97.6656 48.767 98.9254 48.767 99.7024 47.9899Z" stroke="#EB996E" stroke-width="0.561983" stroke-linecap="round" stroke-linejoin="round"/>
<path d="M99.1423 46.9818C99.1423 46.3131 98.1928 46.2938 98.1928 46.0186C98.1928 45.8714 98.2699 45.8273 98.4282 45.8273C98.574 45.8347 98.7114 45.8977 98.8121 46.0035L99.1244 45.6429C98.9801 45.4821 98.7866 45.3737 98.574 45.3347V44.959H98.1612V45.3457C97.994 45.3699 97.8419 45.456 97.7351 45.587C97.6283 45.718 97.5746 45.8843 97.5846 46.053C97.5846 46.697 98.5341 46.741 98.5341 47.0313C98.5341 47.1758 98.4598 47.2377 98.2768 47.2377C98.0893 47.2275 97.9105 47.1548 97.769 47.0313L97.4938 47.4593C97.6806 47.613 97.9083 47.7087 98.1488 47.7345V48.1046H98.5616V47.7042C98.7299 47.6755 98.8819 47.5862 98.9889 47.4531C99.0959 47.32 99.1505 47.1524 99.1423 46.9818Z" stroke="#EB996E" stroke-width="0.561983" stroke-linecap="round" stroke-linejoin="round"/>
</g>
<g opacity="0.3">
<path d="M56.3714 9.49973C58.369 9.18012 59.7293 7.30166 59.4097 5.30406C59.09 3.30646 57.2116 1.94618 55.214 2.26579C53.2164 2.58539 51.8561 4.46386 52.1757 6.46145C52.4953 8.45905 54.3738 9.81933 56.3714 9.49973Z" stroke="#EB996E" stroke-width="0.561983" stroke-linecap="round" stroke-linejoin="round"/>
<path d="M58.4292 7.55815C59.3529 6.10208 58.9214 4.1729 57.4653 3.24921C56.0092 2.32551 54.08 2.75709 53.1564 4.21316C52.2327 5.66923 52.6642 7.59841 54.1203 8.52211C55.5764 9.4458 57.5056 9.01422 58.4292 7.55815Z" stroke="#EB996E" stroke-width="0.561983" stroke-linecap="round" stroke-linejoin="round"/>
<path d="M57.12 6.51158C57.12 5.46168 55.6311 5.43828 55.6311 4.99796C55.6311 4.76816 55.7522 4.69798 56.0013 4.69798C56.2294 4.70833 56.4446 4.80702 56.6012 4.97319L57.0911 4.40764C56.8637 4.15249 56.5568 3.98178 56.2201 3.92328V3.3371H55.5733V3.94668C55.3154 3.98809 55.0819 4.12344 54.9178 4.32667C54.7537 4.5299 54.6706 4.78664 54.6844 5.04749C54.6844 6.05749 56.1733 6.12079 56.1733 6.58313C56.1733 6.80743 56.0591 6.9065 55.7701 6.9065C55.5279 6.9065 55.2844 6.81431 54.9734 6.58313L54.5468 7.24913C54.8388 7.49208 55.1958 7.64377 55.5733 7.68533V8.26739H56.2201V7.6468C56.482 7.59849 56.7176 7.45683 56.8831 7.24808C57.0485 7.03933 57.1327 6.77766 57.12 6.51158Z" stroke="#EB996E" stroke-width="0.561983" stroke-linecap="round" stroke-linejoin="round"/>
</g>
<g opacity="0.3">
<path d="M27.151 49.5308C28.4233 49.3242 29.2872 48.1255 29.0807 46.8533C28.8742 45.581 27.6754 44.7171 26.4032 44.9236C25.131 45.1301 24.267 46.3289 24.4735 47.6011C24.68 48.8733 25.8788 49.7373 27.151 49.5308Z" stroke="#EB996E" stroke-width="0.561983" stroke-linecap="round" stroke-linejoin="round"/>
<path d="M28.7642 47.2281C28.7642 46.8346 28.6476 46.4499 28.4289 46.1227C28.2103 45.7955 27.8995 45.5404 27.536 45.3898C27.1724 45.2392 26.7723 45.1998 26.3863 45.2766C26.0004 45.3534 25.6458 45.5429 25.3676 45.8212C25.0893 46.0994 24.8998 46.454 24.823 46.8399C24.7462 47.2259 24.7857 47.626 24.9363 47.9895C25.0868 48.3531 25.3419 48.6639 25.6691 48.8825C25.9963 49.1011 26.381 49.2178 26.7745 49.2178C27.3022 49.2178 27.8083 49.0082 28.1815 48.6351C28.5546 48.2619 28.7642 47.7558 28.7642 47.2281V47.2281Z" stroke="#EB996E" stroke-width="0.561983" stroke-linecap="round" stroke-linejoin="round"/>
<path d="M27.6208 47.6285C27.6208 46.9584 26.6727 46.9405 26.6727 46.6653C26.6727 46.518 26.7498 46.474 26.908 46.474C27.0535 46.4811 27.1906 46.5443 27.2906 46.6501L27.6029 46.2896C27.459 46.1285 27.2652 46.0205 27.0525 45.9828V45.6057H26.6397V45.9938C26.4751 46.0198 26.3259 46.1059 26.2212 46.2356C26.1165 46.3652 26.0636 46.5291 26.0728 46.6956C26.0728 47.3382 27.0222 47.3836 27.0222 47.6739C27.0222 47.8115 26.9493 47.8789 26.7649 47.8789C26.5776 47.8691 26.3989 47.7969 26.2572 47.6739L25.982 48.1005C26.1691 48.2535 26.3966 48.3491 26.637 48.3757V48.7445H27.0498V48.3509C27.2166 48.3207 27.3666 48.2306 27.4718 48.0976C27.5769 47.9646 27.6299 47.7978 27.6208 47.6285V47.6285Z" stroke="#EB996E" stroke-width="0.561983" stroke-linecap="round" stroke-linejoin="round"/>
</g>
<g opacity="0.3">
<path d="M85.2869 59.9874C86.5615 59.7958 87.4394 58.6072 87.2478 57.3326C87.0562 56.0581 85.8676 55.1802 84.593 55.3718C83.3185 55.5634 82.4406 56.752 82.6322 58.0265C82.8238 59.3011 84.0124 60.179 85.2869 59.9874Z" stroke="#EB996E" stroke-width="0.561983" stroke-linecap="round" stroke-linejoin="round"/>
<path d="M86.9274 57.6831C86.9268 57.2897 86.8097 56.9053 86.5907 56.5784C86.3718 56.2516 86.0608 55.997 85.6972 55.8468C85.3336 55.6966 84.9336 55.6576 84.5478 55.7347C84.162 55.8118 83.8077 56.0015 83.5297 56.2799C83.2517 56.5583 83.0625 56.9128 82.986 57.2987C82.9094 57.6846 82.949 58.0845 83.0997 58.4479C83.2503 58.8114 83.5054 59.1219 83.8325 59.3405C84.1597 59.559 84.5442 59.6756 84.9377 59.6756C85.1992 59.6758 85.4583 59.6243 85.6999 59.5242C85.9416 59.4241 86.1612 59.2773 86.346 59.0922C86.5308 58.9072 86.6773 58.6874 86.7771 58.4456C86.8769 58.2038 86.9279 57.9447 86.9274 57.6831V57.6831Z" stroke="#EB996E" stroke-width="0.561983" stroke-linecap="round" stroke-linejoin="round"/>
<path d="M85.7839 58.0822C85.7839 57.4134 84.8358 57.3942 84.8358 57.119C84.8358 56.9717 84.9129 56.9277 85.0711 56.9277C85.2166 56.9348 85.3537 56.9979 85.4537 57.1038L85.766 56.7433C85.6224 56.5817 85.4285 56.4731 85.2156 56.4351V56.0594H84.8028V56.4475C84.6384 56.4734 84.4895 56.5594 84.3848 56.6887C84.2801 56.8181 84.2271 56.9817 84.2359 57.1479C84.2359 57.7918 85.1854 57.8359 85.1854 58.1276C85.1854 58.2652 85.1124 58.3326 84.928 58.3326C84.7407 58.3227 84.562 58.2506 84.4203 58.1276L84.1451 58.5541C84.3323 58.7072 84.5597 58.8028 84.8001 58.8294V59.1981H85.2129V58.8032C85.3793 58.7727 85.529 58.6828 85.6341 58.5501C85.7391 58.4175 85.7924 58.2512 85.7839 58.0822Z" stroke="#EB996E" stroke-width="0.561983" stroke-linecap="round" stroke-linejoin="round"/>
</g>
<g opacity="0.3">
<path d="M38.7817 23.0789C40.0706 23.0789 41.1155 22.034 41.1155 20.7451C41.1155 19.4563 40.0706 18.4114 38.7817 18.4114C37.4928 18.4114 36.448 19.4563 36.448 20.7451C36.448 22.034 37.4928 23.0789 38.7817 23.0789Z" stroke="#EB996E" stroke-width="0.561983" stroke-linecap="round" stroke-linejoin="round"/>
<path d="M40.6527 21.4205C41.0268 20.3872 40.4924 19.2464 39.4591 18.8723C38.4258 18.4983 37.2849 19.0327 36.9109 20.066C36.5369 21.0993 37.0713 22.2401 38.1046 22.6142C39.1378 22.9882 40.2787 22.4538 40.6527 21.4205Z" stroke="#EB996E" stroke-width="0.561983" stroke-linecap="round" stroke-linejoin="round"/>
<path d="M39.6294 21.1469C39.6294 20.4768 38.6799 20.4589 38.6799 20.1837C38.6799 20.0365 38.757 19.9924 38.9152 19.9924C39.061 19.9995 39.1983 20.0632 39.2978 20.17L39.6101 19.8094C39.4665 19.6478 39.2726 19.5393 39.0597 19.5012V19.1242H38.6469V19.5122C38.4824 19.5385 38.3335 19.6247 38.2288 19.7543C38.1241 19.8839 38.0711 20.0476 38.08 20.214C38.08 20.858 39.0294 20.902 39.0294 21.1923C39.0294 21.3299 38.9565 21.3987 38.7721 21.3987C38.5847 21.3881 38.4061 21.3155 38.2644 21.1923L37.9892 21.6189C38.1763 21.772 38.4038 21.8675 38.6442 21.8941V22.2643H39.057V21.868C39.2237 21.8378 39.3737 21.7479 39.479 21.6153C39.5843 21.4826 39.6378 21.3161 39.6294 21.1469V21.1469Z" stroke="#EB996E" stroke-width="0.561983" stroke-linecap="round" stroke-linejoin="round"/>
</g>
<g opacity="0.3">
<path d="M37.3358 54.1098C40.1452 53.8016 42.1729 51.2743 41.8647 48.4649C41.5565 45.6555 39.0292 43.6278 36.2198 43.936C33.4104 44.2442 31.3827 46.7715 31.6909 49.5809C31.9991 52.3903 34.5264 54.418 37.3358 54.1098Z" stroke="#EB996E" stroke-width="0.561983" stroke-linecap="round" stroke-linejoin="round"/>
<path d="M40.6923 50.9492C41.7582 48.7887 40.8709 46.1733 38.7104 45.1074C36.55 44.0415 33.9345 44.9288 32.8687 47.0893C31.8028 49.2497 32.6901 51.8652 34.8505 52.931C37.011 53.9969 39.6264 53.1096 40.6923 50.9492Z" stroke="#EB996E" stroke-width="0.561983" stroke-linecap="round" stroke-linejoin="round"/>
<path d="M38.6372 49.8976C38.6372 48.4294 36.5567 48.3977 36.5567 47.784C36.5567 47.462 36.7259 47.3643 37.0727 47.3643C37.3713 47.3643 37.6231 47.4937 37.9121 47.7524L38.6001 46.9612C38.2815 46.6059 37.8525 46.3683 37.3823 46.2869V45.4613H36.4755V46.3117C35.6994 46.4796 35.2371 47.0341 35.2371 47.8487C35.2371 49.2605 37.3176 49.3486 37.3176 49.9939C37.3176 50.309 37.1566 50.4453 36.7535 50.4453C36.415 50.4453 36.0751 50.3159 35.6403 49.9939L35.0431 50.9296C35.4523 51.2674 35.951 51.4787 36.4783 51.5378V52.3483H37.3823V51.4814C38.2217 51.2819 38.6372 50.6737 38.6372 49.8976Z" stroke="#EB996E" stroke-width="0.561983" stroke-linecap="round" stroke-linejoin="round"/>
</g>
<path d="M33.8473 24.4068C33.8803 25.0631 33.3272 26.4281 33.3272 26.4295C33.3272 26.4309 32.5373 25.7924 32.4933 25.7415C31.9759 25.1993 31.2934 23.8495 31.6925 23.1119C31.7622 22.9912 31.8565 22.8865 31.9694 22.8046C32.0822 22.7228 32.211 22.6656 32.3474 22.6367C32.4839 22.6079 32.6248 22.6081 32.7611 22.6374C32.8974 22.6666 33.0261 22.7242 33.1387 22.8064C33.6271 23.1436 33.8184 23.8481 33.8473 24.4068Z" fill="#BC9434"/>
<path d="M47.2388 37.446L47.3241 37.4969L47.3351 38.0899L46.9801 37.8712C46.6374 37.6579 46.2756 37.4239 45.9054 37.1831C45.6193 37.4948 45.3152 37.7893 44.9945 38.0652C45.2779 38.6321 45.3976 39.854 45.4073 40.0109C45.805 40.0012 46.1916 39.9875 46.5563 39.9696C46.8067 39.9572 47.0475 39.9434 47.28 39.9283L47.0847 40.4457C46.9182 40.4457 46.7503 40.4581 46.5755 40.4622C46.1723 40.4732 45.7417 40.4787 45.2986 40.4787C45.2738 40.637 45.0619 41.9373 44.722 42.4533C44.4138 42.9198 43.8964 43.4289 43.2992 43.4661C43.1614 43.4791 43.0224 43.4632 42.8911 43.4193C42.7598 43.3754 42.6391 43.3045 42.5369 43.2112C42.4346 43.1179 42.353 43.0042 42.2973 42.8775C42.2417 42.7507 42.2131 42.6138 42.2135 42.4753C42.2452 41.6359 43.5194 40.8241 44.2404 40.6177C44.2831 40.6067 44.7592 40.5282 45.0591 40.4801C44.8789 40.4801 44.7028 40.4801 44.517 40.4801C44.1482 40.4801 43.7808 40.4608 43.3845 40.4471L42.8066 40.4058C42.614 40.3962 42.4103 40.3618 42.2108 40.3397C41.7471 40.2806 41.282 40.2021 40.8141 40.1044C40.8141 40.4264 40.7783 41.5713 40.5389 42.0818C40.2995 42.5923 39.866 43.173 39.2867 43.2996C39.1514 43.3338 39.0104 43.3391 38.8729 43.3152C38.7355 43.2912 38.6045 43.2386 38.4887 43.1607C38.3729 43.0828 38.2749 42.9814 38.2009 42.8631C38.1269 42.7448 38.0786 42.6122 38.0593 42.4739C37.963 41.6401 39.0996 40.6411 39.7821 40.3315C39.8234 40.3122 40.3325 40.1457 40.6229 40.0563C40.3476 39.9971 40.0614 39.9407 39.7793 39.8719C38.9647 39.6737 38.1474 39.4481 37.33 39.2265L36.5828 39.0353C36.5828 39.1509 36.576 40.5131 36.3076 41.0842C36.0737 41.5919 35.6334 42.1753 35.0555 42.3019C34.9202 42.3364 34.7791 42.3419 34.6415 42.318C34.5039 42.2942 34.3729 42.2416 34.2571 42.1637C34.1412 42.0857 34.0431 41.9842 33.9692 41.8658C33.8953 41.7474 33.8472 41.6146 33.8281 41.4763C33.7317 40.6425 34.8683 39.6435 35.5495 39.3339C35.6017 39.3105 36.342 39.071 36.5333 39.0201C35.9829 38.8743 35.4325 38.7353 34.8821 38.6211C34.1419 38.4623 33.3923 38.3515 32.6378 38.2895C32.6378 38.3431 32.6378 39.7646 32.3626 40.3535C32.1273 40.8612 31.6883 41.4433 31.1104 41.5699C30.975 41.6046 30.8338 41.6102 30.6961 41.5865C30.5583 41.5628 30.4271 41.5102 30.3111 41.4323C30.1951 41.3543 30.0969 41.2527 30.0229 41.1342C29.9488 41.0156 29.9007 40.8827 29.8816 40.7443C29.7867 39.9118 30.9219 38.9114 31.6044 38.6018C31.6581 38.5784 32.4548 38.3266 32.602 38.284C32.558 38.284 32.5139 38.2729 32.4644 38.2702C31.7063 38.2291 30.9461 38.2553 30.1926 38.3486C29.7798 38.3954 29.3807 38.4628 28.9968 38.5371C29.0244 38.8027 29.1344 40.0136 28.9501 40.5682C28.7725 41.0993 28.3996 41.7254 27.8382 41.9153C27.709 41.9616 27.5716 41.9806 27.4346 41.9711C27.2977 41.9616 27.1642 41.9237 27.0426 41.86C26.921 41.7962 26.814 41.7079 26.7283 41.6007C26.6426 41.4934 26.5801 41.3696 26.5448 41.2369C26.3576 40.4113 27.3704 39.3008 28.0212 38.9183C28.0556 38.8977 28.434 38.7257 28.7092 38.6032C28.5359 38.6403 28.3584 38.6747 28.1932 38.7119C27.5754 38.8495 27.0167 39.0201 26.5241 39.1729C26.2489 39.2623 25.9944 39.3476 25.7604 39.4302C25.6517 39.7054 25.1976 40.8062 24.7862 41.2011C24.3748 41.596 23.7638 41.9744 23.179 41.8891C22.5942 41.8038 22.1773 41.2644 22.33 40.6796C22.5405 39.8678 23.9606 39.3449 24.7091 39.3036C24.7738 39.3036 25.7907 39.3586 25.7852 39.3724V39.3889C26.0095 39.305 26.2489 39.2169 26.5145 39.1275C27.0044 38.9637 27.5603 38.7835 28.1781 38.628C28.8418 38.4508 29.5154 38.313 30.1954 38.2152C30.956 38.1041 31.725 38.0608 32.4933 38.0858H32.5208C32.2883 38.0032 31.6498 37.7501 31.603 37.7253C30.9425 37.3717 29.8734 36.3025 30.022 35.4769C30.0505 35.3405 30.1074 35.2116 30.1891 35.0986C30.2708 34.9857 30.3753 34.8912 30.4959 34.8214C30.6165 34.7515 30.7505 34.7079 30.8891 34.6933C31.0277 34.6787 31.1678 34.6934 31.3003 34.7366C31.87 34.9003 32.2635 35.5085 32.4713 36.0314C32.6983 36.6203 32.6172 37.9854 32.6089 38.0954C33.3901 38.1405 34.1674 38.2375 34.9358 38.3858C35.383 38.4697 35.8329 38.5688 36.2815 38.6734C36.0834 38.5949 35.9072 38.5234 35.8838 38.511C35.222 38.1574 34.1542 37.0882 34.3028 36.2626C34.3313 36.1261 34.3883 35.9972 34.4699 35.8843C34.5516 35.7713 34.6561 35.6767 34.7766 35.6068C34.8972 35.5368 35.0311 35.493 35.1697 35.4782C35.3083 35.4634 35.4485 35.478 35.5811 35.5209C36.1508 35.6846 36.5512 36.2942 36.7521 36.8171C36.953 37.34 36.9103 38.5124 36.8897 38.8206C37.0617 38.8619 37.2337 38.9018 37.4043 38.9444C38.2299 39.1481 39.0556 39.3573 39.8592 39.5334C40.144 39.5967 40.4288 39.649 40.7123 39.7013C40.5362 39.6311 40.3889 39.5719 40.3683 39.5637C39.7064 39.2114 38.6372 38.1409 38.7872 37.3152C38.8158 37.1788 38.8727 37.0499 38.9544 36.937C39.036 36.8241 39.1406 36.7296 39.2612 36.6597C39.3818 36.5899 39.5157 36.5463 39.6543 36.5316C39.7929 36.517 39.933 36.5318 40.0656 36.5749C40.6339 36.7387 41.0357 37.3483 41.2366 37.8698C41.4375 38.3913 41.3989 39.4522 41.3742 39.8182C41.6659 39.8636 41.959 39.909 42.2438 39.9393C42.4392 39.9558 42.625 39.9861 42.8217 39.9916L43.401 40.0205C43.7698 40.0205 44.1496 40.0315 44.5101 40.0274C44.7592 40.0274 44.9986 40.0205 45.238 40.015C44.9532 39.9558 44.3973 39.8279 44.3519 39.8113C43.7389 39.5695 43.198 39.1749 42.7805 38.6651C42.7113 38.6411 42.6445 38.6107 42.5809 38.5743C42.4576 38.5092 42.3495 38.4188 42.2635 38.309C42.1775 38.1992 42.1156 38.0726 42.0818 37.9373C42.0481 37.802 42.0432 37.6611 42.0676 37.5238C42.0919 37.3865 42.1449 37.2559 42.2232 37.1405C42.7117 36.4594 44.2239 36.4814 44.9367 36.7112C44.9793 36.7249 45.4197 36.9217 45.6949 37.051C45.5449 36.9506 45.3976 36.8543 45.2435 36.7483C44.9381 36.5419 44.6395 36.3273 44.3175 36.0975L43.8675 35.7328C43.712 35.6186 43.562 35.4782 43.4065 35.3489C43.0543 35.0448 42.7103 34.7173 42.3718 34.3857C42.1915 34.6526 41.5338 35.5911 41.0549 35.8869C40.5761 36.1828 39.8922 36.425 39.3404 36.2117C38.7886 35.9984 38.4941 35.3861 38.768 34.8494C39.1478 34.1008 40.6476 33.8944 41.3824 34.0114C41.4292 34.0197 41.9493 34.1641 42.2342 34.2481C42.0333 34.0444 41.831 33.8422 41.6329 33.6289C41.0632 33.0152 40.5045 32.3753 39.9458 31.7396C39.7738 31.5456 39.6005 31.3529 39.4285 31.1603C39.3652 31.2566 38.6028 32.3891 38.0717 32.7207C37.597 33.0152 36.909 33.2573 36.3572 33.0441C36.2255 32.9983 36.105 32.9254 36.0034 32.83C35.9018 32.7346 35.8214 32.619 35.7674 32.4905C35.7134 32.362 35.6871 32.2236 35.69 32.0843C35.693 31.945 35.7253 31.8078 35.7848 31.6818C36.1659 30.9346 37.6644 30.7268 38.3992 30.8452C38.4556 30.8548 39.2055 31.0626 39.3927 31.1204C39.0129 30.6952 38.6304 30.2755 38.2368 29.882C37.7071 29.3417 37.1431 28.8361 36.5484 28.3683C36.5196 28.4137 35.7338 29.5985 35.1862 29.9384C34.7101 30.2328 34.0221 30.4764 33.4703 30.2631C33.3386 30.2173 33.218 30.1442 33.1164 30.0487C33.0149 29.9531 32.9345 29.8373 32.8807 29.7087C32.8268 29.58 32.8006 29.4415 32.8038 29.3021C32.807 29.1627 32.8395 29.0255 32.8992 28.8995C33.279 28.1523 34.7775 27.9459 35.5137 28.0629C35.5728 28.0725 36.3792 28.2982 36.5223 28.3491C36.4879 28.3216 36.4549 28.2899 36.4191 28.2638C35.8094 27.8118 35.1611 27.4144 34.4817 27.0763C34.1088 26.8864 33.7414 26.724 33.3808 26.574C33.257 26.8107 32.6791 27.8812 32.2209 28.2417C31.7626 28.6023 31.12 28.9036 30.5504 28.7522C30.4145 28.7211 30.2868 28.6616 30.1754 28.5779C30.0641 28.4941 29.9716 28.3878 29.904 28.266C29.8364 28.1441 29.7951 28.0094 29.783 27.8706C29.7708 27.7317 29.788 27.5919 29.8335 27.4602C30.1279 26.6758 31.5948 26.3057 32.3433 26.3415C32.3846 26.3415 32.796 26.4089 33.0946 26.4612C32.9309 26.3965 32.763 26.3236 32.6048 26.2672C32.0103 26.0442 31.453 25.8764 30.9535 25.7305C30.6783 25.6507 30.4141 25.5846 30.1733 25.5241C29.9312 25.692 28.9473 26.358 28.3845 26.4625C27.8217 26.5671 27.1048 26.5451 26.6672 26.1474C26.2297 25.7498 26.176 25.0741 26.6259 24.671C27.2493 24.1095 28.7216 24.4577 29.3697 24.8333C29.4248 24.8664 30.2421 25.4759 30.2298 25.4856L30.2146 25.4952C30.4472 25.5489 30.6962 25.608 30.9673 25.6782C31.4668 25.8158 32.0282 25.9686 32.6295 26.1805C33.2798 26.4008 33.9166 26.659 34.5367 26.9538C35.2322 27.2814 35.8976 27.6696 36.5251 28.1138L36.5457 28.1317C36.3985 27.9349 36.0063 27.3707 35.9802 27.3239C35.6238 26.6648 35.3224 25.1828 35.9031 24.5719C36.0022 24.474 36.1207 24.3981 36.251 24.349C36.3814 24.3 36.5206 24.279 36.6596 24.2873C36.7986 24.2956 36.9343 24.333 37.0579 24.3973C37.1814 24.4615 37.2901 24.551 37.3768 24.66C37.7621 25.1099 37.7593 25.8392 37.6396 26.3855C37.502 27.0019 36.6764 28.0959 36.6172 28.1826C37.2503 28.6523 37.8511 29.1639 38.4157 29.7141C38.7432 30.0319 39.0638 30.3608 39.3789 30.6952C39.2578 30.5218 39.1491 30.3649 39.1367 30.3416C38.7804 29.6824 38.479 28.1991 39.0597 27.5895C39.1587 27.4916 39.2773 27.4157 39.4076 27.3667C39.538 27.3176 39.6772 27.2966 39.8162 27.3049C39.9552 27.3132 40.0909 27.3507 40.2145 27.4149C40.338 27.4791 40.4467 27.5686 40.5334 27.6776C40.9187 28.1275 40.9159 28.8568 40.7962 29.4031C40.6765 29.9494 39.9926 30.9043 39.8082 31.1534C39.9293 31.2828 40.0504 31.4107 40.1701 31.5401C40.7439 32.1648 41.3136 32.7895 41.8915 33.3853C42.0952 33.5958 42.3043 33.7981 42.5108 33.9963C42.4034 33.8408 42.314 33.7101 42.3016 33.688C41.9452 33.0289 41.6439 31.5469 42.2245 30.936C42.6373 30.4998 43.3254 30.5837 43.6983 31.0241C44.0712 31.4644 44.0808 32.2047 43.9611 32.751C43.8414 33.2973 43.2235 34.1586 43.0061 34.4545C43.2249 34.654 43.4437 34.8535 43.6652 35.0365C43.818 35.1576 43.9583 35.2856 44.1193 35.3984L44.5858 35.7411C44.8913 35.9488 45.2036 36.1649 45.5064 36.3589C45.7155 36.4965 45.9192 36.6231 46.1214 36.7511C45.9164 36.5447 45.5229 36.1305 45.494 36.092C45.0413 35.4948 44.5197 34.0761 45.0014 33.3881C45.0845 33.2762 45.1902 33.1832 45.3116 33.1148C45.433 33.0465 45.5675 33.0045 45.7062 32.9915C45.8449 32.9786 45.9848 32.9949 46.1168 33.0395C46.2488 33.0841 46.3699 33.156 46.4723 33.2505C46.9195 33.6371 47.0227 34.3582 46.9925 34.9168C46.9526 35.5319 46.3375 36.6933 46.259 36.8433C46.5948 37.0579 46.9237 37.2602 47.2388 37.446Z" fill="#BC9434"/>
<path d="M28.8799 38.4504C28.8799 38.4656 27.8699 38.3541 27.8066 38.3404C27.0759 38.1739 25.7618 37.4239 25.6875 36.5887C25.6792 36.4495 25.7004 36.3102 25.7495 36.1797C25.7986 36.0493 25.8746 35.9306 25.9726 35.8314C26.0706 35.7323 26.1883 35.6549 26.3182 35.6042C26.4481 35.5536 26.5872 35.5308 26.7264 35.5374C27.3181 35.5443 27.8658 36.0259 28.1974 36.4772C28.5868 37.0056 28.8799 38.4491 28.8799 38.4504Z" fill="#BC9434"/>
<path d="M101.977 24.4068C101.944 25.0631 102.496 26.4281 102.496 26.4295C102.496 26.4309 103.286 25.7924 103.331 25.7415C103.848 25.1993 104.531 23.8495 104.132 23.1119C104.062 22.9912 103.968 22.8865 103.855 22.8046C103.742 22.7228 103.613 22.6656 103.477 22.6367C103.34 22.6079 103.199 22.6081 103.063 22.6374C102.927 22.6666 102.798 22.7242 102.686 22.8064C102.196 23.1436 102.004 23.8481 101.977 24.4068Z" fill="#BC9434"/>
<path d="M88.5855 37.4459L88.4988 37.4969L88.4892 38.0899L88.8442 37.8711C89.1868 37.6579 89.5487 37.4239 89.9175 37.1831C90.2036 37.4948 90.5077 37.7893 90.8284 38.0652C90.545 38.6321 90.4266 39.854 90.4156 40.0109C90.018 40.0012 89.6327 39.9875 89.268 39.9696C89.0162 39.9572 88.7754 39.9434 88.5442 39.9283L88.741 40.4498C88.9061 40.4498 89.074 40.4622 89.2488 40.4663C89.6519 40.4773 90.084 40.4828 90.5271 40.4828C90.5519 40.6411 90.7638 41.9414 91.1036 42.4574C91.4119 42.9239 91.9292 43.433 92.5251 43.4702C92.6638 43.4839 92.8038 43.4683 92.9361 43.4242C93.0684 43.3802 93.1899 43.3088 93.2927 43.2147C93.3955 43.1206 93.4774 43.0058 93.5329 42.878C93.5884 42.7501 93.6163 42.612 93.6149 42.4726C93.5832 41.6332 92.309 40.8213 91.588 40.6149C91.5453 40.6039 91.0692 40.5255 90.7624 40.4773C90.944 40.4773 91.1188 40.4773 91.3128 40.4773C91.6816 40.4773 92.049 40.4581 92.4439 40.4443L93.0218 40.403C93.2158 40.3934 93.4181 40.359 93.619 40.337C94.0813 40.2778 94.5478 40.1994 95.0157 40.1017C95.0157 40.4237 95.0501 41.5685 95.2909 42.079C95.5317 42.5895 95.9651 43.1702 96.5431 43.2968C96.6784 43.331 96.8195 43.3363 96.9571 43.3124C97.0947 43.2885 97.2257 43.2359 97.3416 43.158C97.4575 43.0801 97.5557 42.9787 97.6298 42.8604C97.7039 42.7421 97.7523 42.6095 97.7718 42.4712C97.8668 41.6373 96.7316 40.6383 96.0491 40.3287C96.0064 40.3094 95.4987 40.143 95.2083 40.0535C95.4835 39.9943 95.7684 39.9379 96.0518 39.8691C96.865 39.671 97.6838 39.4453 98.5011 39.2238L99.2359 39.0353C99.2359 39.1508 99.2428 40.5131 99.5111 41.0842C99.7451 41.5919 100.184 42.1753 100.762 42.3019C101.34 42.4285 101.922 42.0804 101.991 41.4763C102.086 40.6424 100.95 39.6435 100.268 39.3339C100.217 39.3105 99.4767 39.071 99.2855 39.0201C99.8359 38.8743 100.386 38.7353 100.937 38.6211C101.676 38.4623 102.426 38.3515 103.18 38.2894C103.18 38.3431 103.18 39.7645 103.455 40.3535C103.689 40.8612 104.129 41.4433 104.707 41.5699C104.842 41.6043 104.983 41.6098 105.121 41.586C105.259 41.5621 105.39 41.5095 105.505 41.4316C105.621 41.3537 105.719 41.2522 105.793 41.1337C105.867 41.0153 105.915 40.8826 105.934 40.7443C106.031 39.9118 104.896 38.9114 104.213 38.6018C104.159 38.5784 103.363 38.3266 103.214 38.2839C103.258 38.2839 103.303 38.2729 103.352 38.2702C104.109 38.2291 104.869 38.2553 105.622 38.3486C106.035 38.3954 106.435 38.4628 106.818 38.5371C106.792 38.8027 106.68 40.0136 106.866 40.5681C107.043 41.0993 107.416 41.7254 107.976 41.9153C108.106 41.9632 108.245 41.9834 108.383 41.9747C108.521 41.966 108.656 41.9285 108.779 41.8646C108.902 41.8008 109.01 41.7119 109.096 41.6038C109.183 41.4957 109.246 41.3707 109.281 41.2369C109.468 40.4113 108.455 39.3008 107.804 38.9183C107.77 38.8976 107.392 38.7256 107.116 38.6032C107.288 38.6403 107.467 38.6747 107.632 38.7119C108.25 38.8495 108.808 39.0201 109.3 39.1729C109.575 39.2623 109.831 39.3476 110.065 39.4302C110.174 39.7054 110.628 40.8062 111.039 41.2011C111.451 41.596 112.06 41.9744 112.645 41.8891C112.784 41.8724 112.917 41.8268 113.037 41.7552C113.156 41.6836 113.26 41.5877 113.34 41.4736C113.42 41.3596 113.475 41.23 113.502 41.0932C113.529 40.9564 113.527 40.8155 113.496 40.6796C113.284 39.8677 111.864 39.3449 111.117 39.3036C111.052 39.3036 110.035 39.3586 110.04 39.3724V39.3889C109.818 39.305 109.577 39.2169 109.313 39.1274C108.821 38.9637 108.267 38.7834 107.649 38.628C106.985 38.4509 106.312 38.3131 105.632 38.2151C104.871 38.1041 104.102 38.0608 103.334 38.0858H103.306C103.537 38.0032 104.177 37.75 104.224 37.7253C104.885 37.3716 105.954 36.3025 105.804 35.4769C105.775 35.3404 105.718 35.2116 105.637 35.0986C105.555 34.9857 105.45 34.8912 105.33 34.8214C105.209 34.7515 105.075 34.7079 104.937 34.6933C104.798 34.6787 104.658 34.6934 104.525 34.7366C103.957 34.9003 103.555 35.5085 103.354 36.0314C103.127 36.6203 103.217 37.9853 103.217 38.0954C102.435 38.1399 101.656 38.2364 100.887 38.3844C100.439 38.4683 99.99 38.5674 99.5414 38.672C99.7396 38.5935 99.9157 38.522 99.9391 38.5096C100.6 38.156 101.669 37.0868 101.52 36.2612C101.492 36.1248 101.435 35.9959 101.353 35.8829C101.271 35.7699 101.167 35.6754 101.046 35.6054C100.926 35.5355 100.792 35.4917 100.653 35.4769C100.515 35.4621 100.374 35.4766 100.242 35.5195C99.6721 35.6833 99.2703 36.2928 99.0694 36.8157C98.8685 37.3386 98.9126 38.511 98.9318 38.8192L98.4158 38.9431C97.5902 39.1467 96.7729 39.3559 95.9624 39.532C95.6762 39.5953 95.3927 39.6476 95.1092 39.6999C95.284 39.6297 95.4312 39.5705 95.4532 39.5623C96.1137 39.21 97.1829 38.1395 97.0343 37.3138C97.0058 37.1774 96.9488 37.0486 96.8672 36.9356C96.7855 36.8227 96.681 36.7282 96.5604 36.6584C96.4398 36.5885 96.3058 36.5449 96.1672 36.5303C96.0286 36.5156 95.8885 36.5304 95.756 36.5735C95.1863 36.7373 94.7859 37.3469 94.585 37.8684C94.3841 38.3899 94.4199 39.4481 94.4405 39.8127C94.1488 39.8581 93.8557 39.9035 93.5708 39.9338C93.3755 39.9503 93.1883 39.9806 92.9915 39.9861L92.4136 40.015C92.0448 40.015 91.6637 40.026 91.3045 40.0219C91.0541 40.0219 90.816 40.015 90.5766 40.0095C90.8615 39.9503 91.4174 39.8223 91.4614 39.8058C92.0746 39.5644 92.6157 39.1698 93.0328 38.6596C93.1024 38.6356 93.1697 38.6052 93.2337 38.5688C93.3568 38.5035 93.4649 38.413 93.5507 38.3032C93.6366 38.1935 93.6984 38.0668 93.7322 37.9316C93.7659 37.7964 93.7708 37.6556 93.7466 37.5183C93.7224 37.3811 93.6695 37.2505 93.5915 37.135C93.103 36.4538 91.5894 36.4759 90.8766 36.7056C90.8353 36.7194 90.395 36.9162 90.1184 37.0455C90.2698 36.9451 90.417 36.8488 90.5697 36.7428C90.8752 36.5364 91.1738 36.3217 91.4958 36.0919L91.9554 35.7383C92.1109 35.6241 92.2609 35.4837 92.4164 35.3544C92.77 35.0503 93.1126 34.7228 93.4511 34.3912C93.6328 34.6581 94.2905 35.5966 94.768 35.8924C95.2455 36.1883 95.9335 36.4208 96.4839 36.213C97.0343 36.0052 97.3288 35.3874 97.0549 34.8508C96.6752 34.1022 95.1767 33.8958 94.4405 34.0128C94.3951 34.021 93.8736 34.1655 93.5887 34.2494C93.791 34.0458 93.9933 33.8435 94.1901 33.6302C94.7611 33.0165 95.3184 32.3767 95.8784 31.741C96.0491 31.5469 96.2224 31.3543 96.3944 31.1617C96.4591 31.258 97.2201 32.3904 97.7512 32.7221C98.2273 33.0165 98.9153 33.2587 99.4671 33.0454C99.5987 32.9997 99.7193 32.9268 99.8209 32.8314C99.9224 32.736 100.003 32.6203 100.057 32.4917C100.111 32.3632 100.137 32.2248 100.134 32.0855C100.13 31.9462 100.098 31.8091 100.038 31.6832C99.6584 30.936 98.1599 30.7282 97.4237 30.8465C97.3687 30.8562 96.6187 31.064 96.4302 31.1217C96.81 30.6966 97.1939 30.2769 97.5875 29.8833C98.1164 29.3428 98.6799 28.8371 99.2745 28.3697C99.3047 28.4151 100.09 29.5999 100.638 29.9397C101.114 30.2342 101.801 30.4778 102.354 30.2645C102.486 30.2186 102.606 30.1455 102.708 30.05C102.809 29.9545 102.89 29.8386 102.944 29.71C102.997 29.5814 103.024 29.4429 103.02 29.3035C103.017 29.164 102.985 29.0269 102.925 28.9008C102.545 28.1537 101.047 27.9473 100.311 28.0642C100.253 28.0739 99.4465 28.2995 99.3034 28.3504C99.3378 28.3229 99.3708 28.2913 99.4052 28.2651C100.015 27.8131 100.664 27.4158 101.344 27.0776C101.717 26.8877 102.084 26.7254 102.445 26.5754C102.569 26.812 103.145 27.8826 103.605 28.2431C104.064 28.6036 104.706 28.905 105.274 28.7536C105.41 28.7226 105.538 28.6633 105.649 28.5796C105.761 28.4959 105.853 28.3896 105.921 28.2677C105.989 28.1459 106.03 28.0111 106.043 27.8722C106.055 27.7333 106.038 27.5934 105.992 27.4615C105.696 26.6772 104.23 26.307 103.481 26.3428C103.441 26.3428 103.03 26.4102 102.731 26.4625C102.895 26.3979 103.063 26.3249 103.221 26.2685C103.814 26.0456 104.371 25.8777 104.872 25.7319C105.147 25.6521 105.412 25.586 105.651 25.5255C105.893 25.6933 106.877 26.3593 107.44 26.4639C108.003 26.5685 108.718 26.5465 109.157 26.1488C109.596 25.7511 109.648 25.0755 109.198 24.6723C108.574 24.1109 107.101 24.459 106.455 24.8347C106.398 24.8677 105.582 25.4773 105.595 25.4869L105.61 25.4966C105.376 25.5502 105.127 25.6094 104.857 25.6796C104.357 25.8172 103.795 25.9699 103.193 26.1818C102.544 26.4021 101.907 26.6604 101.288 26.9552C100.592 27.2822 99.9264 27.6703 99.2992 28.1151L99.2772 28.133C99.4244 27.9363 99.818 27.3721 99.8428 27.3253C100.199 26.6662 100.5 25.1842 99.9212 24.5733C99.822 24.4753 99.7033 24.3994 99.5729 24.3503C99.4424 24.3013 99.3031 24.2802 99.164 24.2885C99.0249 24.2968 98.8891 24.3343 98.7654 24.3986C98.6417 24.4628 98.5329 24.5523 98.4461 24.6613C98.0622 25.1113 98.0636 25.8406 98.1846 26.3869C98.3222 27.0033 99.1479 28.0972 99.207 28.1839C98.5803 28.6525 97.9855 29.1623 97.4265 29.7099C97.099 30.0278 96.7797 30.3567 96.4632 30.6911C96.5843 30.5177 96.6917 30.3608 96.7054 30.3374C97.0618 29.6783 97.3618 28.1949 96.7825 27.5854C96.6833 27.4875 96.5646 27.4115 96.4342 27.3625C96.3037 27.3134 96.1644 27.2923 96.0253 27.3007C95.8862 27.309 95.7504 27.3464 95.6267 27.4107C95.503 27.4749 95.3942 27.5644 95.3074 27.6734C94.9235 28.1234 94.9248 28.8527 95.0459 29.399C95.167 29.9452 95.8495 30.9002 96.0325 31.1493L95.6583 31.5442C95.0845 32.1689 94.5134 32.7936 93.9355 33.3894C93.7332 33.6 93.5227 33.8022 93.3163 34.0004C93.425 33.8449 93.5144 33.7142 93.5254 33.6922C93.8818 33.033 94.1832 31.5511 93.6039 30.9401C93.5047 30.8422 93.386 30.7663 93.2556 30.7172C93.1251 30.6681 92.9858 30.6471 92.8467 30.6554C92.7076 30.6637 92.5718 30.7012 92.4481 30.7654C92.3244 30.8296 92.2156 30.9192 92.1288 31.0282C91.7449 31.4781 91.7462 32.2088 91.8673 32.7551C91.9884 33.3014 92.6049 34.1628 92.8209 34.4586C92.6021 34.6581 92.3847 34.8576 92.1632 35.0407C92.0091 35.1617 91.8701 35.2897 91.7091 35.4026L91.2412 35.7452C90.9371 35.953 90.6234 36.169 90.3207 36.363C90.1115 36.5006 89.9079 36.6272 89.707 36.7552C89.912 36.5488 90.3055 36.1346 90.3344 36.0961C90.7858 35.4989 91.3087 34.0802 90.8271 33.3922C90.7439 33.2804 90.6382 33.1873 90.5168 33.119C90.3954 33.0506 90.2609 33.0086 90.1222 32.9957C89.9835 32.9827 89.8436 32.999 89.7116 33.0436C89.5796 33.0882 89.4585 33.1601 89.3561 33.2546C88.9075 33.6412 88.8057 34.3623 88.8346 34.9209C88.8759 35.536 89.4909 36.6974 89.568 36.8474C89.2295 37.0579 88.8992 37.2602 88.5855 37.4459Z" fill="#BC9434"/>
<path d="M106.942 38.4504C106.942 38.4656 107.952 38.3541 108.015 38.3404C108.744 38.1739 110.058 37.4239 110.133 36.5887C110.186 35.9874 109.674 35.5305 109.095 35.5374C108.516 35.5443 107.956 36.0259 107.624 36.4772C107.237 37.0056 106.942 38.4491 106.942 38.4504Z" fill="#BC9434"/>
<path d="M49.5047 12.8471L47.1624 14.6811L50.005 18.3117L52.3474 16.4777L49.5047 12.8471Z" fill="#BC9434" stroke="#BC9434" stroke-width="0.561983" stroke-linejoin="round"/>
<path d="M49.3173 10.918L45.3346 14.0363L47.3519 16.6128L51.3345 13.4944L49.3173 10.918Z" fill="#BC9434" stroke="#BC9434" stroke-width="0.561983" stroke-linejoin="round"/>
<path d="M46.1944 13.4853L47.6736 15.3746" stroke="#BC9434" stroke-width="0.561983" stroke-linejoin="round"/>
<path d="M47.5428 12.4299L49.0221 14.3178" stroke="#BC9434" stroke-width="0.561983" stroke-linejoin="round"/>
<path d="M47.1755 13.4426L48.6547 15.3305" stroke="#BC9434" stroke-width="0.561983" stroke-linejoin="round"/>
<path d="M79.8939 16.4803L82.2363 18.3143L85.079 14.6837L82.7366 12.8497L79.8939 16.4803Z" fill="#BC9434" stroke="#BC9434" stroke-width="0.561983" stroke-linejoin="round"/>
<path d="M80.909 13.4937L84.8917 16.6121L86.909 14.0357L82.9263 10.9173L80.909 13.4937Z" fill="#BC9434" stroke="#BC9434" stroke-width="0.561983" stroke-linejoin="round"/>
<path d="M86.0508 13.4853L84.5716 15.3746" stroke="#BC9434" stroke-width="0.561983" stroke-linejoin="round"/>
<path d="M84.7024 12.4299L83.2231 14.3178" stroke="#BC9434" stroke-width="0.561983" stroke-linejoin="round"/>
<path d="M85.0697 13.4426L83.5905 15.3305" stroke="#BC9434" stroke-width="0.561983" stroke-linejoin="round"/>
<path d="M68.3552 6.46893H63.5309V11.3001H68.3552V6.46893Z" fill="#BC9434" stroke="#BC9434" stroke-width="0.561983" stroke-linejoin="round"/>
<path d="M69.434 3.6976H62.4521V8.52882H69.434V3.6976Z" fill="#BC9434" stroke="#BC9434" stroke-width="0.561983" stroke-linejoin="round"/>
<path d="M63.0795 3.68112V7.70736" stroke="#BC9434" stroke-width="0.561983" stroke-linejoin="round"/>
<path d="M63.6547 7.88761V5.73001" stroke="#BC9434" stroke-width="0.561983" stroke-linejoin="round"/>
<path d="M64.2657 3.78979V6.84457" stroke="#BC9434" stroke-width="0.561983" stroke-linejoin="round"/>
<path d="M64.8766 5.26352V8.06785" stroke="#BC9434" stroke-width="0.561983" stroke-linejoin="round"/>
<path d="M65.8123 3.82562V6.9891" stroke="#BC9434" stroke-width="0.561983" stroke-linejoin="round"/>
<path d="M83.7878 53.5371C93.6437 43.6812 93.6437 27.7016 83.7878 17.8457C73.9319 7.9898 57.9523 7.9898 48.0964 17.8457C38.2405 27.7016 38.2405 43.6812 48.0964 53.5371C57.9523 63.393 73.9319 63.393 83.7878 53.5371Z" fill="#BC9434" stroke="#BC9434" stroke-width="0.561983" stroke-linejoin="round"/>
<path d="M81.6959 51.4452C90.3964 42.7446 90.3964 28.6382 81.6959 19.9376C72.9953 11.2371 58.8889 11.2371 50.1884 19.9376C41.4878 28.6382 41.4878 42.7446 50.1884 51.4452C58.8889 60.1457 72.9953 60.1457 81.6959 51.4452Z" fill="white" stroke="#BC9434" stroke-width="0.561983" stroke-linejoin="round"/>
<path d="M80.4611 50.2104C88.4798 42.1918 88.4798 29.191 80.4611 21.1724C72.4425 13.1537 59.4417 13.1537 51.4231 21.1724C43.4044 29.191 43.4044 42.1918 51.4231 50.2104C59.4417 58.2291 72.4425 58.2291 80.4611 50.2104Z" fill="white" stroke="#BC9434" stroke-width="0.561983" stroke-linejoin="round"/>
<path d="M65.9431 15.1585V17.9422" stroke="#BC9434" stroke-width="0.561983" stroke-linejoin="round"/>
<path d="M65.9431 53.4202V56.2039" stroke="#BC9434" stroke-width="0.561983" stroke-linejoin="round"/>
<path d="M86.465 35.6819H83.6813" stroke="#BC9434" stroke-width="0.561983" stroke-linejoin="round"/>
<path d="M48.2034 35.6819H45.4197" stroke="#BC9434" stroke-width="0.561983" stroke-linejoin="round"/>
<path d="M80.4546 21.1703L78.4855 23.1381" stroke="#BC9434" stroke-width="0.561983" stroke-linejoin="round"/>
<path d="M53.3992 48.2243L51.4315 50.1934" stroke="#BC9434" stroke-width="0.561983" stroke-linejoin="round"/>
<path d="M51.4315 21.1703L53.3992 23.1381" stroke="#BC9434" stroke-width="0.561983" stroke-linejoin="round"/>
<path d="M78.4855 48.2243L80.4546 50.1934" stroke="#BC9434" stroke-width="0.561983" stroke-linejoin="round"/>
<path d="M71.0082 33.7266L71.3288 34.9498L50.3444 40.0109L50.2481 39.6435L71.0082 33.7266Z" fill="#BC9434" stroke="#BC9434" stroke-width="0.561983" stroke-linejoin="round"/>
<path d="M66.748 35.6915C66.748 35.5323 66.7008 35.3767 66.6123 35.2443C66.5239 35.1119 66.3982 35.0088 66.2511 34.9478C66.104 34.8869 65.9421 34.871 65.786 34.902C65.6298 34.9331 65.4864 35.0098 65.3738 35.1223C65.2613 35.2349 65.1846 35.3783 65.1535 35.5345C65.1225 35.6906 65.1384 35.8525 65.1993 35.9996C65.2603 36.1467 65.3634 36.2724 65.4958 36.3608C65.6282 36.4493 65.7838 36.4965 65.943 36.4965C66.0487 36.4965 66.1534 36.4757 66.2511 36.4352C66.3487 36.3948 66.4375 36.3355 66.5122 36.2607C66.587 36.186 66.6463 36.0973 66.6867 35.9996C66.7272 35.9019 66.748 35.7973 66.748 35.6915Z" fill="white" stroke="#BC9434" stroke-width="0.561983" stroke-linejoin="round"/>
<path d="M58.2112 50.9488L56.9521 50.1232C56.9521 50.1232 56.1719 50.8787 56.1265 50.9488C56.0811 51.019 53.9372 51.275 53.512 51.275C53.0868 51.275 52.7828 51.1745 52.7318 51.3768C52.6809 51.5791 53.3359 52.0304 54.2922 52.2822C54.6693 52.3813 55.2197 52.5794 55.7618 52.7735L55.6765 52.9867C55.6765 52.9867 57.1103 53.5151 57.3374 53.5371C57.4144 53.5468 57.4887 53.4298 57.5534 53.2729C57.7777 53.0707 58.2112 50.9488 58.2112 50.9488Z" fill="#BC9434" stroke="#BC9434" stroke-width="0.561983" stroke-linejoin="round"/>
<path d="M79.5312 40.1801L79.834 41.6497C79.834 41.6497 80.9197 41.6634 81.0091 41.6497C81.0985 41.6359 82.7979 42.961 83.0965 43.2624C83.3951 43.5637 83.5424 43.8472 83.7212 43.7399C83.9001 43.6325 83.7529 42.851 83.252 41.9978C83.0539 41.6621 82.8021 41.1337 82.5557 40.6135L82.7663 40.5227C82.7663 40.5227 82.1209 39.1371 81.9778 38.9596C81.9283 38.899 81.7934 38.9293 81.6379 38.994C81.3297 38.9843 79.5312 40.1801 79.5312 40.1801Z" fill="#BC9434" stroke="#BC9434" stroke-width="0.561983" stroke-linejoin="round"/>
<path d="M64.8353 36.2488C64.8353 36.2488 64.4321 36.5006 64.4831 36.652C64.534 36.8033 64.8601 37.0538 64.8601 37.0538C64.8601 37.0538 59.5404 41.6401 59.4399 41.9923C59.3395 42.3446 56.1237 50.1177 56.1237 50.1177L58.5895 51.3562L61.881 43.5321L67.4773 39.9544C67.4773 39.9544 71.5228 45.709 71.926 45.6594C72.3291 45.6099 80.6059 41.7543 80.6059 41.7543L79.7982 39.8609L72.8052 42.2551L70.6215 37.3565C70.6215 37.3565 71.1499 36.4497 70.8238 35.5677C70.4976 34.6856 69.5399 33.3275 69.5399 33.3275L64.8353 36.2488Z" fill="#BC9434" stroke="#BC9434" stroke-width="0.561983" stroke-linejoin="round"/>
<path d="M67.4759 39.9475C67.4759 39.9475 70.1564 38.3431 70.3834 38.1161" stroke="#999999" stroke-width="0.561983" stroke-linejoin="round"/>
<path d="M66.0132 36.224C66.3225 35.9483 66.6518 35.6958 66.9984 35.4686C67.5268 35.1672 68.735 35.2168 68.735 35.2168" stroke="#999999" stroke-width="0.561983" stroke-linejoin="round"/>
<path d="M65.1615 36.9781C65.1615 36.9781 65.3404 36.813 65.5935 36.5887" stroke="#999999" stroke-width="0.561983" stroke-linejoin="round"/>
<path d="M69.3129 34.9402C69.3129 34.9402 68.307 34.8136 67.5241 35.0159" stroke="#999999" stroke-width="0.561983" stroke-linejoin="round"/>
<path d="M68.1048 39.6957C68.1048 39.6957 70.1936 40.0741 70.8733 40.0232" stroke="#999999" stroke-width="0.561983" stroke-linejoin="round"/>
<path d="M70.6449 41.3126C70.8073 41.3607 70.9683 41.4006 71.1251 41.4323" stroke="#999999" stroke-width="0.561983" stroke-linejoin="round"/>
<path d="M68.08 40.1498C68.7567 40.5492 69.4666 40.8895 70.2018 41.1667" stroke="#999999" stroke-width="0.561983" stroke-linejoin="round"/>
<path d="M64.4308 35.7961L64.834 36.2488L69.54 33.3289L69.2372 33.0275L64.4308 35.7961Z" fill="#BC9434" stroke="#BC9434" stroke-width="0.561983" stroke-linejoin="round"/>
<path d="M71.2765 29.9673L71.7086 30.5493L72.7653 30.1833L72.5493 29.6646L71.2765 29.9673Z" fill="white" stroke="#BC9434" stroke-width="0.561983" stroke-linejoin="round"/>
<path d="M60.1569 25.7236C60.1569 25.7236 58.0639 25.7539 56.992 25.7236C55.9201 25.6934 52.9245 25.0962 52.6851 25.5447C52.4456 25.9933 52.9534 27.2194 54.4202 27.6982C55.8871 28.1771 59.0863 28.6257 59.0863 28.6257C59.0863 28.6257 60.4018 30.2769 61.1503 31.258C61.8989 32.2391 63.2735 34.5192 63.3933 34.7283C63.513 34.9375 64.051 36.2241 64.7693 35.9544C65.4876 35.6847 69.4051 33.2629 69.4051 33.0826C69.4051 32.9023 69.4051 32.6698 69.2868 32.5143C69.1684 32.3588 67.7608 30.6305 67.5213 30.1751C67.2819 29.7196 66.4205 27.5138 66.4205 27.5138L68.3043 27.0653C68.3043 27.0653 70.5183 29.5173 70.9366 29.9067C71.3549 30.2962 71.7141 30.1462 71.7141 30.1462C71.7141 30.1462 72.7021 29.9659 72.731 29.6673C72.7598 29.3687 69.4409 24.2829 69.112 24.1041C68.7831 23.9252 66.5691 24.6723 65.672 24.821C64.7748 24.9696 63.6974 25.0301 62.4411 25.3301C61.6891 25.5112 60.9261 25.6427 60.1569 25.7236Z" fill="white" stroke="#BC9434" stroke-width="0.561983" stroke-linejoin="round"/>
<path d="M66.4054 27.5193L63.4139 28.3559" stroke="#BC9434" stroke-width="0.561983" stroke-linejoin="round"/>
<path d="M65.0582 27.9073L64.0125 28.7453" stroke="#BC9434" stroke-width="0.561983" stroke-linejoin="round"/>
<path d="M56.5351 27.456L56.0852 27.2496" stroke="#BC9434" stroke-width="0.561983" stroke-linejoin="round"/>
<path d="M56.9824 27.1905L59.0767 28.6257L56.8613 27.6074" stroke="#BC9434" stroke-width="0.561983" stroke-linejoin="round"/>
<path d="M64.1157 31.8084C65.1683 32.0272 67.0053 32.3492 68.5547 32.3148" stroke="#BC9434" stroke-width="0.561983" stroke-linejoin="round"/>
<path d="M63.2529 31.613C63.2529 31.613 63.4332 31.6584 63.74 31.7272" stroke="#BC9434" stroke-width="0.561983" stroke-linejoin="round"/>
<path d="M66.5017 31.8799C66.5017 31.8799 67.7484 32.1386 68.5809 32.1386" stroke="#BC9434" stroke-width="0.561983" stroke-linejoin="round"/>
<path d="M60.1183 27.3033L60.571 28.8183L61.16 27.2579L60.1183 27.3033Z" fill="#BC9434" stroke="#BC9434" stroke-width="0.561983" stroke-linejoin="round"/>
<path d="M60.2545 26.1612L59.6573 26.8189L60.6866 27.6432L61.2631 26.6139L60.2545 26.1612Z" fill="white" stroke="#BC9434" stroke-width="0.561983" stroke-linejoin="round"/>
<path d="M59.6573 26.8189L59.9463 28.034L60.3577 27.3749L59.6573 26.8189Z" fill="white" stroke="#BC9434" stroke-width="0.561983" stroke-linejoin="round"/>
<path d="M57.7433 21.5088C57.7433 21.5088 57.3305 22.5175 57.3525 22.7844C57.3745 23.0514 57.5795 23.2165 57.5589 23.5261C57.5383 23.8357 56.8998 24.4109 57.0443 24.5554C57.1888 24.6998 57.7226 24.9255 57.7226 24.9255C57.7226 24.9255 58.2992 26.1199 58.5056 26.1639C58.712 26.208 59.8225 25.6493 59.8225 25.6493L60.6866 27.6445L62.3956 25.114L61.8191 23.9816C61.8191 23.9816 62.3131 22.706 61.8397 21.6561C61.3664 20.6062 59.8637 20.5443 59.1427 20.6681C58.4217 20.7919 57.8878 21.0974 57.7433 21.5088Z" fill="white" stroke="#BC9434" stroke-width="0.561983" stroke-miterlimit="10"/>
<path d="M59.1235 21.2846C58.9561 21.249 58.783 21.251 58.6164 21.2902C58.4499 21.3295 58.2941 21.4051 58.1603 21.5116C57.647 21.8817 57.2135 22.2932 57.0085 21.9244C56.8035 21.5556 57.4406 20.9364 57.4406 20.9364C57.4406 20.9364 56.926 20.7919 57.1324 20.1961C57.3388 19.6003 58.0956 19.4751 58.0956 19.6815C58.0956 19.8879 58.0337 20.0516 58.6102 19.764C59.1868 19.4765 59.495 19.3925 59.6188 19.7228C59.7427 20.053 60.483 19.8604 61.3265 20.3392C62.17 20.8181 62.3764 21.1222 62.1906 22.1927C62.0049 23.2633 61.965 23.7765 61.8205 23.9816C61.676 24.1866 61.1614 24.2485 60.9357 24.1673C60.71 24.0861 60.8325 23.8577 60.8325 23.8577C60.8325 23.8577 61.4297 23.2605 61.1614 22.7872C60.893 22.3138 60.5036 22.5202 60.3798 22.7872C60.2559 23.0541 60.3179 23.2812 60.1321 23.2812C59.9463 23.2812 59.7826 23.1436 59.7413 22.8491C59.7 22.5546 59.5569 22.2987 59.4331 22.2519C59.3092 22.2051 59.001 22.4789 59.0203 22.0056C59.0274 21.7325 59.1291 21.4704 59.3079 21.2639L59.1235 21.2846Z" fill="#BC9434" stroke="#BC9434" stroke-width="0.561983" stroke-miterlimit="10"/>
<path d="M57.7447 23.3197C57.7394 23.1886 57.7824 23.0601 57.8656 22.9586C57.9488 22.8571 58.0664 22.7898 58.196 22.7693" stroke="#BC9434" stroke-width="0.561983" stroke-miterlimit="10"/>
<path d="M58.2304 23.5233C58.2703 23.6348 58.2579 23.7421 58.2043 23.7614C58.1506 23.7807 58.0763 23.7036 58.0364 23.5908C57.9965 23.4779 58.0089 23.372 58.0625 23.3527C58.1162 23.3335 58.1919 23.4105 58.2304 23.5233Z" fill="#BC9434"/>
<path d="M62.3544 24.4522L60.5641 26.7364L60.893 27.9514L62.9928 25.0287L62.3544 24.4522Z" fill="white" stroke="#BC9434" stroke-width="0.561983" stroke-linejoin="round"/>
<path d="M60.5696 28.8183C60.6008 28.9216 60.6593 29.0145 60.739 29.0872C60.8187 29.1599 60.9166 29.2096 61.0224 29.2311C61.3842 29.2985 62.0172 29.0275 62.3337 28.2129C62.6502 27.3982 63.3065 25.1595 63.6905 24.6159C64.0744 24.0724 65.3417 24.0518 65.9981 24.0958C66.6544 24.1398 67.1057 23.5082 67.7167 23.2138C68.0746 23.0398 68.4554 22.918 68.8478 22.8519L69.6184 21.2846L68.0125 21.2392C68.0125 21.2392 66.4287 21.9863 66.0214 22.4611C65.6141 22.9358 65.321 22.8739 64.461 23.0486C63.601 23.2234 63.1277 23.5922 62.7878 24.6324C62.4479 25.6727 61.9966 28.2968 61.4985 28.6587C61.3711 28.7642 61.2183 28.8345 61.0554 28.8625C60.8924 28.8905 60.7249 28.8753 60.5696 28.8183Z" fill="#BC9434" stroke="#BC9434" stroke-width="0.561983" stroke-linejoin="round"/>
<path d="M55.0091 27.1134C55.1949 27.3074 55.2224 27.5826 55.0697 27.7312C54.917 27.8798 54.6404 27.8427 54.4546 27.6501C54.2688 27.4574 54.2413 27.1808 54.3941 27.0322C54.5468 26.8836 54.822 26.9263 55.0091 27.1134Z" fill="white" stroke="#BC9434" stroke-width="0.561983" stroke-linejoin="round"/>
<path d="M54.8619 27.489L54.5633 27.1725C54.5633 27.1725 53.9496 25.5736 53.1309 25.1457C52.3121 24.7177 51.3269 25.3686 51.1219 25.9823C50.9168 26.596 51.6434 27.6198 52.4057 27.9362C53.0179 28.1655 53.6462 28.3495 54.2853 28.4866C54.2853 28.4866 54.639 27.6569 54.8619 27.489Z" fill="white" stroke="#BC9434" stroke-width="0.561983" stroke-linejoin="round"/>
<path d="M53.801 28.3449L53.8327 28.3862C54.101 28.4537 54.2854 28.4936 54.2854 28.4936C54.2854 28.4936 54.639 27.6569 54.8619 27.4891L54.5633 27.1726C54.5633 27.1726 53.7074 27.3212 53.801 28.3449Z" fill="#BC9434" stroke="#BC9434" stroke-width="0.561983" stroke-linejoin="round"/>
<path d="M56.7402 29.9631C56.8486 30.1189 56.9736 30.2624 57.1131 30.3911C57.2617 30.5039 57.3167 30.6333 57.131 30.6154C56.9061 30.61 56.6925 30.516 56.5365 30.3539C56.3494 30.1503 56.22 29.9824 56.22 29.9824L56.7402 29.9631Z" fill="white" stroke="#BC9434" stroke-width="0.561983" stroke-linejoin="round"/>
<path d="M56.8338 29.4031C56.8338 29.4031 57.0938 29.831 57.0016 29.9425C56.9094 30.054 56.0522 30.0911 55.9215 30.054C55.7907 30.0168 55.8843 29.8489 55.8843 29.8489L56.8338 29.4031Z" fill="white" stroke="#BC9434" stroke-width="0.561983" stroke-linejoin="round"/>
<path d="M56.8145 28.9036C56.8145 28.9036 57.0195 29.2201 56.9824 29.3494C56.9452 29.4788 56.0714 29.8709 55.8816 29.8517C55.6917 29.8324 55.7151 29.6852 55.7151 29.6852L56.8145 28.9036Z" fill="white" stroke="#BC9434" stroke-width="0.561983" stroke-linejoin="round"/>
<path d="M56.4622 28.5307C56.4622 28.5307 56.7966 28.4936 56.8338 28.7357C56.8709 28.9779 56.6659 29.0522 56.5365 29.1637C56.4072 29.2751 55.8485 29.6852 55.7178 29.6852C55.5871 29.6852 55.3449 29.3123 55.3449 29.3123L56.4622 28.5307Z" fill="white" stroke="#BC9434" stroke-width="0.561983" stroke-linejoin="round"/>
<path d="M54.8619 27.4891C54.8619 27.4891 55.7728 27.8248 56.2008 27.9363C56.6287 28.0477 56.648 28.4014 56.4622 28.5307C56.2765 28.6601 55.6985 29.3687 55.5307 29.4059C55.3628 29.443 55.1179 29.2573 55.1179 29.2573C55.1179 29.2573 54.5963 28.9958 54.522 28.7922C54.4767 28.6689 54.3921 28.564 54.2812 28.4936C54.2812 28.4936 54.2289 27.7313 54.8619 27.4891Z" fill="white" stroke="#BC9434" stroke-width="0.561983" stroke-linejoin="round"/>
<path d="M55.122 29.2572C55.122 29.2572 54.9734 28.9036 55.1041 28.81C55.2348 28.7165 55.4385 28.9215 55.4385 28.9215C55.4681 28.8137 55.5186 28.7127 55.5871 28.6243" stroke="#BC9434" stroke-width="0.561983" stroke-linejoin="round"/>
<path d="M71.7154 30.5493C71.7647 30.8161 71.7955 31.086 71.8076 31.3571C71.7925 31.5456 71.4636 32.3299 71.4471 32.3767C71.4306 32.4235 71.5572 32.612 71.604 32.6739C71.6507 32.7358 71.8709 32.7056 72.0429 32.8459C72.2149 32.9863 72.4186 33.333 72.6704 33.2587C72.9222 33.1844 73.0832 32.8459 73.0832 32.8459C73.0832 32.8459 73.6625 32.5019 73.6776 32.3299C73.6856 32.1179 73.6591 31.906 73.5992 31.7024C73.5524 31.5648 72.7736 30.1888 72.7736 30.1888L71.7154 30.5493Z" fill="white" stroke="#BC9434" stroke-width="0.561983" stroke-linejoin="round"/>
<path d="M71.8792 32.235C71.8792 32.235 72.1764 32.2817 72.303 32.7372" stroke="#BC9434" stroke-width="0.561983" stroke-linejoin="round"/>
<path d="M72.036 32.4702L71.3618 32.8156L71.9893 33.9908" stroke="#BC9434" stroke-width="1.68595" stroke-linecap="round" stroke-linejoin="round"/>
<path d="M73.6818 31.9061L73.8689 31.8276L74.4964 33.0812" stroke="#BC9434" stroke-width="1.68595" stroke-linejoin="round"/>
<path d="M76.8183 31.8233L70.0743 34.833C69.8112 34.9503 69.6932 35.2587 69.8106 35.5217L71.6202 39.5767C71.7376 39.8397 72.0459 39.9578 72.309 39.8404L79.053 36.8307C79.316 36.7133 79.4341 36.405 79.3167 36.1419L77.5071 32.087C77.3897 31.824 77.0813 31.7059 76.8183 31.8233Z" fill="#BC9434" stroke="#BC9434" stroke-width="0.561983" stroke-linejoin="round"/>
</svg>
